Coordinates
version=1
nRows=8
nColumns=63
inDegrees=yes

Units are S.I. units (second, meters, Newtons, ...)
If the header above contains a line with 'inDegrees', this indicates whether rotational values are in degrees (yes) or radians (no).

endheader
time	pelvis_tilt	pelvis_list	pelvis_rotation	pelvis_tx	pelvis_ty	pelvis_tz	hip_flexion_r	hip_adduction_r	hip_rotation_r	knee_angle_r	knee_angle_r_beta	ankle_angle_r	subtalar_angle_r	mtp_angle_r	hip_flexion_l	hip_adduction_l	hip_rotation_l	knee_angle_l	knee_angle_l_beta	ankle_angle_l	subtalar_angle_l	mtp_angle_l	L5_S1_Flex_Ext	L5_S1_Lat_Bending	L5_S1_axial_rotation	L4_L5_Flex_Ext	L4_L5_Lat_Bending	L4_L5_axial_rotation	L3_L4_Flex_Ext	L3_L4_Lat_Bending	L3_L4_axial_rotation	L2_L3_Flex_Ext	L2_L3_Lat_Bending	L2_L3_axial_rotation	L1_L2_Flex_Ext	L1_L2_Lat_Bending	L1_L2_axial_rotation	L1_T12_Flex_Ext	L1_T12_Lat_Bending	L1_T12_axial_rotation	Abs_r3	Abs_r2	Abs_r1	Abs_t1	Abs_t2	neck_flexion	neck_bending	neck_rotation	arm_flex_r	arm_add_r	arm_rot_r	elbow_flex_r	pro_sup_r	wrist_flex_r	wrist_dev_r	arm_flex_l	arm_add_l	arm_rot_l	elbow_flex_l	pro_sup_l	wrist_flex_l	wrist_dev_l
      7.28300000	    -43.29815316	     -1.52695287	      4.92933344	     -0.24431462	      1.04249096	     -0.00411538	     96.99756410	    -12.66304200	     -5.34309143	     68.44809160	      1.19464457	     10.96139035	      5.04686036	      0.00000000	     95.48975299	     -5.32324035	      2.62493426	    101.41552295	      1.77003479	     14.59624759	      9.85724938	      0.00000000	     -0.04907903	     -0.13647482	     -1.14381151	     -0.09114467	     -0.18151151	     -1.21529973	     -0.08063194	     -0.33182487	     -1.21529973	     -0.05609243	     -0.33182487	     -1.00083507	     -0.04557479	     -0.27829945	     -0.92934685	     -0.02804376	     -0.21139949	     -0.85785863	     -0.35056661	     -1.54383044	     -6.36153648	      0.00000000	      0.00000000	      0.00000000	      0.00000000	      0.00000000	     74.82527762	     -9.56780503	     21.86579075	     28.37116215	     37.48277069	      0.00000000	      5.00000014	     79.56254874	     -5.21185239	     27.38055981	     24.59449108	     48.13601199	      0.00000000	      5.00000014
      7.29200000	    -43.17020955	     -1.77594095	      5.42286682	     -0.24377198	      1.04188987	     -0.00446524	     94.46355674	    -12.83032425	     -6.17817604	     65.13048885	      1.13674147	      9.99947633	      4.52787016	      0.00000000	     97.44946914	     -4.83969351	      3.44471134	    104.40533289	      1.82221682	     15.37762576	     10.36408142	      0.00000000	     -0.04841412	     -0.14914458	     -1.23421283	     -0.08990987	     -0.19836230	     -1.31135113	     -0.07953957	     -0.36263014	     -1.31135113	     -0.05533250	     -0.36263014	     -1.07993623	     -0.04495736	     -0.30413563	     -1.00279793	     -0.02766383	     -0.23102496	     -0.92565962	     -0.34581725	     -1.68715335	     -6.86432151	      0.00000000	      0.00000000	      0.00000000	      0.00000000	      0.00000000	     74.71494942	     -9.58083330	     21.81332325	     28.03749994	     37.46370561	      0.00000000	      5.00000014	     79.46007356	     -5.16663861	     27.62671375	     24.84043933	     48.20144357	      0.00000000	      5.00000014
      7.30000000	    -43.09380652	     -1.48263727	      6.13184951	     -0.24319203	      1.04145146	     -0.00471753	     92.16057728	    -13.18324559	     -6.35876383	     62.10269838	      1.08389656	      9.12408943	      4.46252167	      0.00000000	     99.27805216	     -4.12937310	      3.52560089	    107.00708527	      1.86762596	     15.99669419	     10.46597084	      0.00000000	     -0.05140465	     -0.24327558	     -1.37275227	     -0.09546357	     -0.32355652	     -1.45854928	     -0.08445269	     -0.59150024	     -1.45854928	     -0.05875037	     -0.59150024	     -1.20115823	     -0.04773435	     -0.49608756	     -1.11536122	     -0.02937261	     -0.37683387	     -1.02956420	     -0.36717825	     -2.75198198	     -7.63483629	      0.00000000	      0.00000000	      0.00000000	      0.00000000	      0.00000000	     74.45109490	     -9.59834816	     21.82080022	     27.86305798	     37.46191880	      0.00000000	      5.00000014	     79.54264469	     -5.11821740	     27.70159749	     24.93494091	     48.22099331	      0.00000000	      5.00000014
      7.30800000	    -42.98535969	     -2.21088587	      6.19320489	     -0.24245436	      1.04083104	     -0.00484238	     89.47102854	    -12.85417115	     -7.94430169	     58.94700725	      1.02881936	      8.48508246	      3.69998814	      0.00000000	    101.51174821	     -4.06323219	      4.56972984	    109.71157508	      1.91482821	     16.58705050	     10.86990179	      0.00000000	     -0.04967454	     -0.19289949	     -1.37581670	     -0.09225059	     -0.25655633	     -1.46180525	     -0.08161031	     -0.46901583	     -1.46180525	     -0.05677303	     -0.46901583	     -1.20383961	     -0.04612778	     -0.39336065	     -1.11785107	     -0.02838403	     -0.29880131	     -1.03186253	     -0.35482029	     -2.18211764	     -7.65187976	      0.00000000	      0.00000000	      0.00000000	      0.00000000	      0.00000000	     74.45346218	     -9.78028175	     21.76030101	     27.52059956	     37.44281109	      0.00000000	      5.00000014	     79.44007002	     -4.96495896	     28.06924683	     25.13626767	     48.31193066	      0.00000000	      5.00000014
      7.31700000	    -42.92587917	     -2.40481328	      6.53706136	     -0.24168155	      1.04041443	     -0.00500431	     87.12828327	    -12.80877782	     -8.83902081	     56.25001906	      0.98174804	      7.70503645	      3.21725780	      0.00000000	    103.55326479	     -3.73537230	      4.83621795	    111.92633665	      1.95348309	     17.10980441	     11.06007215	      0.00000000	     -0.04980163	     -0.21866842	     -1.43579921	     -0.09248661	     -0.29082900	     -1.52553666	     -0.08181910	     -0.53167041	     -1.52553666	     -0.05691828	     -0.53167041	     -1.25632431	     -0.04624579	     -0.44590865	     -1.16658686	     -0.02845665	     -0.33871739	     -1.07684941	     -0.35572806	     -2.47362094	     -7.98548448	      0.00000000	      0.00000000	      0.00000000	      0.00000000	      0.00000000	     74.28841515	     -9.98342727	     21.84728329	     27.35976227	     37.46575434	      0.00000000	      5.00000014	     79.45375147	     -4.82183633	     28.31195629	     25.21340546	     48.36822488	      0.00000000	      5.00000014
      7.32500000	    -42.92297654	     -2.21105582	      7.02391028	     -0.24092860	      1.04016050	     -0.00521958	     85.09885094	    -12.95243353	     -9.13524753	     54.00557846	      0.94257516	      7.01818865	      3.13138064	      0.00000000	    105.45633047	     -3.33379981	      4.44147152	    113.71346398	      1.98467435	     17.61892005	     11.04302338	      0.00000000	     -0.05006084	     -0.29515658	     -1.52717868	     -0.09296799	     -0.39255825	     -1.62262734	     -0.08224495	     -0.71764370	     -1.62262734	     -0.05721453	     -0.71764370	     -1.33628134	     -0.04648650	     -0.60188329	     -1.24083268	     -0.02860476	     -0.45719754	     -1.14538401	     -0.35757957	     -3.33887024	     -8.49370965	      0.00000000	      0.00000000	      0.00000000	      0.00000000	      0.00000000	     74.02192980	    -10.15056373	     21.87244967	     27.28438919	     37.47779360	      0.00000000	      5.00000014	     79.51280177	     -4.69382062	     28.40204224	     25.28390622	     48.38586563	      0.00000000	      5.00000014
      7.33300000	    -42.91699038	     -2.52038584	      7.12007180	     -0.24018553	      1.03995759	     -0.00530615	     83.03517316	    -12.65207447	    -10.06109679	     51.89461029	      0.90573181	      6.32272765	      2.61809654	      0.00000000	    107.47687521	     -3.21326342	      4.53725094	    115.28956550	      2.01218251	     18.18737646	     10.98151201	      0.00000000	     -0.04854283	     -0.29883708	     -1.53677921	     -0.09014889	     -0.39745332	     -1.63282791	     -0.07975102	     -0.72659248	     -1.63282791	     -0.05547960	     -0.72659248	     -1.34468181	     -0.04507687	     -0.60938858	     -1.24863311	     -0.02773737	     -0.46289864	     -1.15258441	     -0.34673659	     -3.38050485	     -8.54710492	      0.00000000	      0.00000000	      0.00000000	      0.00000000	      0.00000000	     73.82270832	    -10.50585168	     21.87738417	     27.40382226	     37.47762198	      0.00000000	      5.00000014	     79.54068478	     -4.50159768	     28.68033472	     25.32858906	     48.45116723	      0.00000000	      5.00000014
      7.34200000	    -42.95106806	     -2.30453067	      7.48722682	     -0.23948061	      1.04006514	     -0.00551960	     81.37740538	    -12.72736403	    -10.11802286	     50.40226312	      0.87968544	      5.66111237	      2.56808945	      0.00000000	    109.21597269	     -2.89832671	      3.94999215	    116.35597986	      2.03079495	     18.76883259	     10.92189013	      0.00000000	     -0.04966440	     -0.37123584	     -1.60872159	     -0.09223175	     -0.49374367	     -1.70926669	     -0.08159364	     -0.90262283	     -1.70926669	     -0.05676144	     -0.90262283	     -1.40763139	     -0.04611836	     -0.75702413	     -1.30708629	     -0.02837824	     -0.57504432	     -1.20654119	     -0.35474783	     -4.19949411	     -8.94722687	      0.00000000	      0.00000000	      0.00000000	      0.00000000	      0.00000000	     73.52079720	    -10.73078982	     21.88008339	     27.44650261	     37.48304750	      0.00000000	      5.00000014	     79.58621903	     -4.40024883	     28.73973419	     25.41105732	     48.46165761	      0.00000000	      5.00000014
